<?xml version="1.0" encoding="UTF-8"?>
<!DOCTYPE svg PUBLIC "-//W3C//DTD SVG 1.1//EN" "http://www.w3.org/Graphics/SVG/1.1/DTD/svg11.dtd">
<!-- Creator: CorelDRAW -->
<svg xmlns="http://www.w3.org/2000/svg" xml:space="preserve" width="279.4mm" height="215.9mm" version="1.1" style="shape-rendering:geometricPrecision; text-rendering:geometricPrecision; image-rendering:optimizeQuality; fill-rule:evenodd; clip-rule:evenodd"
viewBox="0 0 27940 21590"
 xmlns:xlink="http://www.w3.org/1999/xlink"
 xmlns:xodm="http://www.corel.com/coreldraw/odm/2003">
 <defs>
  <style type="text/css">
   <![CDATA[
    .fil1 {fill:#373435}
    .fil2 {fill:#003399}
    .fil0 {fill:red}
   ]]>
  </style>
 </defs>
 <g id="Capa_x0020_1">
  <metadata id="CorelCorpID_0Corel-Layer"/>
  <g id="_2453168608208">
   <path class="fil0" d="M2830.55 11945.72l18776.32 525.93c666.7,-1161.5 2400.24,-1127.84 3130.77,1.26l841.65 -168.91c-964.79,-1429.27 -3282.49,-1571.22 -4357.96,-206.93l-18390.78 -151.35zm1225.18 -245.06l10305.29 101.25 419.92 -3531.79 -9882.37 607.97 8871.03 -170.9 -385.75 2575.26 -9328.12 418.21zm12006.95 -3449.39l84.51 423.5c2423.11,-89.9 3923.85,36.08 4446.99,697.94l-1950.11 -10.61 311.32 1104.25 4492.05 286.46c697.69,49.66 1729.33,37.54 2345.58,306.44 303.45,132.41 556.03,327.12 749.06,594.57 -247.17,-665.2 -196.07,-1313.23 -3618.3,-1423.38 -366.52,-10.14 -694.75,-129.72 -1001.39,-310.85 -600.99,-355.04 -960.61,-923.71 -1462.75,-1192.32 -857.68,-458.69 -2431,-564.26 -4396.96,-476z"/>
   <path class="fil1" d="M14422.8 7610.41c264.5,210.32 444.15,438.12 539.56,683.23 188.31,483.84 -245.85,2892.63 -327.17,3539.43l798.55 -5.94 347.5 -2177.48c71.62,-448.92 199.28,-944.29 68.23,-1386.88 -78.32,-264.42 -231.9,-478.74 -446.52,-652.36l-980.15 0z"/>
   <path class="fil2" d="M1373.09 12962.69l-540.4 0 211.38 -215.85 1413.66 0 -211.38 215.85 -534.44 0 -985.22 1006.21 -338.84 0 985.24 -1006.21zm857.98 548.36l-448.31 457.85 -338.81 0 1196.59 -1222.06 1037.45 0c329.02,0 413.26,67.71 164.19,322.07l-159.86 163.28c-78.65,80.27 -174.53,151.37 -282.38,187.26 36.52,57.87 -51.74,162.06 -91.95,203.12l-339.14 346.33 -338.82 0 350.07 -357.59c10.31,-10.51 69.57,-72.85 65.04,-89.5 -6.58,-9.67 -57.2,-10.76 -67.41,-10.76l-746.66 0zm2299.53 223.6l-716.12 0 -342.63 234.25 -386.84 0 1840.32 -1222.06 387.14 0 -552.89 1222.06 -343.12 0 114.14 -234.25zm1520.64 -590.24l-807.32 824.49 -326.9 0 1196.62 -1222.06 320 0 32.12 841.55 824.02 -841.55 328.9 0 -1196.59 1222.06 -301.05 0 -69.8 -824.49zm1740.46 824.49l-1147.08 0 211.35 -215.85 1039.48 0c121.97,0 186.03,-34.15 270.46,-120.42l95.59 -97.61c50.45,-51.52 64.72,-71.89 -16.28,-71.89l-737.11 0c-221.32,0 -281.19,-101.08 -120.47,-265.27l187.66 -191.67c196.79,-200.94 348.32,-259.35 631.84,-259.35l1065.61 0 -211.37 215.85 -963.9 0c-123.04,0 -189.44,33.53 -274.49,120.42l-92.1 94.05c-53,54.11 -62,71.89 20.28,71.89l731.13 0c249.93,0 266.55,118.07 105.03,283.03l-172.03 175.69c-187.07,191.04 -354.7,261.13 -623.6,261.13zm1885.95 -234.25l-716.11 0 -342.63 234.25 -386.84 0 1840.34 -1222.06 387.12 0 -552.89 1222.06 -343.12 0 114.13 -234.25zm1444.08 234.25l-601.98 0c-301.92,0 -489.23,-36.77 -209.92,-322.07l881.27 -899.99 340.82 0 -867.91 886.41c-10.83,11.03 -75.93,78.94 -68.41,97.1 9.28,22.45 141.51,22.7 161,22.7l456.96 0c185.29,0 274.02,-20.5 404.82,-154.13l834.36 -852.08 338.79 0 -914.83 934.32c-239.27,244.34 -417.53,287.74 -754.97,287.74zm2175.68 -1006.21l-540.38 0 211.36 -215.85 1413.66 0 -211.38 215.85 -534.44 0 -985.22 1006.21 -338.84 0 985.24 -1006.21zm1152.38 1006.21l-613.91 0c-306.1,0 -485.22,-36.77 -205.91,-322.07l599.48 -612.25c240.69,-245.78 416.9,-287.74 755,-287.74l613.9 0c303.8,0 491.61,34.3 209.87,322.07l-599.48 612.25c-241.9,247.01 -419.17,287.74 -758.95,287.74zm1834.9 0l-1147.11 0 211.38 -215.85 1039.43 0c121.97,0 186.05,-34.15 270.48,-120.42l95.59 -97.61c50.48,-51.54 64.75,-71.89 -16.3,-71.89l-737.06 0c-221.35,0 -281.19,-101.08 -120.47,-265.27l187.66 -191.67c196.79,-200.94 348.29,-259.35 631.84,-259.35l1065.61 0 -211.37 215.85 -963.95 0c-123.01,0 -189.42,33.56 -274.44,120.42l-92.1 94.05c-52.98,54.09 -62.03,71.89 20.25,71.89l731.16 0c249.95,0 266.5,118.07 105.03,283.03l-172.01 175.69c-187.09,191.04 -354.72,261.13 -623.62,261.13zm1927.7 -417.04l-408.34 417.04 -340.82 0 1196.6 -1222.06 997.73 0c305.25,0 491.43,34.5 209.89,322.07l-191.15 195.2c-241.32,246.47 -420.18,287.75 -759,287.75l-704.91 0zm2362 201.19l285.6 -291.71 -592.07 0 209.62 -214.07 920.94 0 -706.57 721.63 -999.73 0c-305.28,0 -485.72,-38.31 -207.89,-322.07l599.51 -612.25c237.96,-243.01 420.35,-287.74 756.97,-287.74l1047.74 0 -211.38 215.85 -928.16 0c-185.86,0 -279.93,22.5 -410.56,155.93l-503.93 514.63c-11.05,11.28 -74.86,77.78 -67.44,96.28 9.28,23.07 140.4,23.52 160.04,23.52l647.31 0zm2093.13 215.85l-1147.14 0 211.41 -215.85 1039.42 0c121.98,0 186.06,-34.15 270.49,-120.42l95.59 -97.61c50.47,-51.54 64.74,-71.89 -16.3,-71.89l-737.07 0c-221.34,0 -281.21,-101.08 -120.46,-265.27l187.66 -191.67c196.78,-200.94 348.29,-259.35 631.83,-259.35l1065.62 0 -211.38 215.85 -963.95 0c-123.01,0 -189.41,33.56 -274.44,120.42l-92.1 94.05c-52.97,54.09 -62.02,71.89 20.26,71.89l731.15 0c249.96,0 266.5,118.07 105.03,283.03l-172 175.69c-187.09,191.04 -354.72,261.13 -623.62,261.13zm1885.95 -234.25l-716.14 0 -342.6 234.25 -386.85 0 1840.32 -1222.06 387.14 0 -552.91 1222.06 -343.1 0 114.14 -234.25zm1517.6 234.25l-1147.1 0 211.37 -215.85 1039.46 0c121.97,0 186.05,-34.13 270.48,-120.42l95.59 -97.61c50.45,-51.52 64.74,-71.89 -16.3,-71.89l-737.09 0c-221.34,0 -281.22,-101.08 -120.47,-265.27l187.66 -191.67c196.79,-200.94 348.29,-259.35 631.84,-259.35l1065.64 0 -211.4 215.85 -963.93 0c-123.03,0 -189.44,33.56 -274.46,120.42l-92.1 94.05c-53,54.11 -62,71.89 20.28,71.89l731.13 0c249.93,0 266.55,118.07 105.03,283.03l-172.05 175.69c-187.07,191.04 -354.67,261.13 -623.58,261.13zm-23303.09 -1006.21l-339.46 346.71 712.58 0c111.27,0 181.53,-49.89 257.58,-127.54l100.8 -102.91c102.68,-104.88 101.32,-116.26 -50.43,-116.26l-681.07 0zm2117.19 42.31l-761.2 519.11 509.16 0 252.04 -519.11zm5147.08 0l-761.23 519.11 509.19 0 252.04 -519.11zm4920.12 593.92l503.93 -514.63c11.07,-11.3 76.96,-80.05 69.19,-98.7 -9.49,-22.68 -140.25,-22.9 -160.01,-22.9l-470.85 0c-184.77,0 -277.44,21.96 -408.59,155.93l-503.9 514.63c-10.8,11.03 -76.22,79.19 -68.92,97.19 9,22.21 140.42,22.61 159.51,22.61l470.86 0c183.93,0 278.52,-21.07 408.78,-154.13zm3836.92 -636.23l-370.74 378.63 609.23 0c176.75,0 262.02,-28.59 386.72,-155.9l100.8 -102.93c10.91,-11.16 77.26,-80.43 69.55,-98.8 -8.54,-20.28 -120.79,-21 -138.32,-21l-657.24 0zm6118.75 42.31l-761.2 519.11 509.14 0 252.06 -519.11z"/>
   <path class="fil0" d="M18034.35 13979.56c200.25,0 400.47,0 600.7,0 933.23,-491.16 2013.66,-696.6 3154.88,-784.13 -1527.82,-104.44 -2753.55,191.55 -3755.58,784.13z"/>
  </g>
 </g>
</svg>
